<mxfile host="app.diagrams.net" modified="2023-05-13T06:16:40.293Z" agent="Mozilla/5.0 (Windows NT 10.0; Win64; x64) AppleWebKit/537.36 (KHTML, like Gecko) Chrome/113.0.0.0 Safari/537.36" version="21.3.0" etag="Zu03k0n-eTnxFgfHyAlb" type="github">
  <diagram name="Page-1" id="FGA9SIaVPYGP-v-RwbTy">
    <mxGraphModel>
      <root>
        <mxCell id="0" />
        <mxCell id="1" parent="0" />
      </root>
    </mxGraphModel>
  </diagram>
</mxfile>
